<svg width="98" height="98" fill="none" xmlns="http://www.w3.org/2000/svg"><path opacity=".5" d="M97 49c0 26.51-21.49 48-48 48S1 75.51 1 49 22.49 1 49 1s48 21.49 48 48ZM5.702 49c0 23.913 19.385 43.298 43.298 43.298S92.298 72.913 92.298 49 72.913 5.702 49 5.702 5.702 25.087 5.702 49Z" fill="#F68080"/><path d="M94.796 49c1.77 0 3.215 1.437 3.1 3.203a49 49 0 0 1-97.791 0C-.011 50.435 1.435 49 3.205 49s3.191 1.437 3.324 3.202a42.592 42.592 0 0 0 84.942 0C91.604 50.437 93.026 49 94.796 49Z" fill="#FF4948"/><circle cx="48.5" cy="48.5" r="34.5" stroke="#FDD8D8" stroke-width="2" stroke-linecap="round"/><path d="M60.338 59.146h-7.234a.724.724 0 0 1 0-1.447h7.234c1.196 0 2.17-.973 2.17-2.17v-1.447c0-.399.324-.723.723-.723h1.434c.4 0 .723-.324.723-.723v-8.68c0-.4-.324-.724-.723-.724H63.23a.724.724 0 0 1-.723-.723v-1.447c0-1.196-.974-2.17-2.17-2.17h-4.34a.724.724 0 0 1 0-1.447h4.34a3.622 3.622 0 0 1 3.617 3.617v.723h.71c1.196 0 2.17.974 2.17 2.17v8.68c0 1.197-.974 2.17-2.17 2.17h-.71v.724a3.622 3.622 0 0 1-3.617 3.617ZM41.404 59.146h-5.787A3.622 3.622 0 0 1 32 55.529V41.062a3.622 3.622 0 0 1 3.617-3.617h10.127a.724.724 0 0 1 0 1.447H35.617c-1.197 0-2.17.974-2.17 2.17V55.53c0 1.197.973 2.17 2.17 2.17h5.787a.724.724 0 0 1 0 1.447Z" fill="#FF4948"/><path d="M45.522 62.04a.723.723 0 0 1-.686-.95l3.03-9.178H42.19a.724.724 0 0 1-.594-1.135l10.02-14.467a.732.732 0 0 1 .883-.252.725.725 0 0 1 .418.819l-2.037 9.249h5.777c.275 0 .527.156.65.403a.725.725 0 0 1-.077.761L46.095 61.757a.719.719 0 0 1-.573.282Zm-1.95-11.574h5.295a.722.722 0 0 1 .685.95l-2.01 6.09 7.645-9.934h-5.206a.726.726 0 0 1-.708-.88l1.441-6.54-7.142 10.314Z" fill="#FF4948"/></svg>