<svg width="98" height="98" fill="none" xmlns="http://www.w3.org/2000/svg"><path opacity=".5" d="M97 49c0 26.51-21.49 48-48 48S1 75.51 1 49 22.49 1 49 1s48 21.49 48 48ZM5.702 49c0 23.913 19.385 43.298 43.298 43.298S92.298 72.913 92.298 49 72.913 5.702 49 5.702 5.702 25.087 5.702 49Z" fill="#F68080"/><path d="M94.796 49c1.77 0 3.215 1.437 3.1 3.203a49 49 0 0 1-97.791 0C-.011 50.435 1.435 49 3.205 49s3.191 1.437 3.324 3.202a42.592 42.592 0 0 0 84.942 0C91.604 50.437 93.026 49 94.796 49Z" fill="#FF4948"/><circle cx="48.5" cy="48.5" r="34.5" stroke="#FDD8D8" stroke-width="2" stroke-linecap="round"/><path d="M58.672 54.234 51.218 48.5l7.454-5.734c.574-.444.91-1.128.91-1.853a2.348 2.348 0 0 0-.915-1.85L48.75 31.48a.605.605 0 0 0-.085-.055A2.301 2.301 0 0 0 47.332 31 2.42 2.42 0 0 0 45 33.44v10.204l-4.26-3.602a1.167 1.167 0 0 0-1.66.195l-1.42 1.847c-.383.5-.3 1.214.185 1.614l5.765 4.802-5.758 4.796c-.49.4-.576 1.116-.193 1.62l1.42 1.847a1.167 1.167 0 0 0 1.67.187L45 53.356V63.56A2.42 2.42 0 0 0 47.332 66a2.3 2.3 0 0 0 1.33-.425.61.61 0 0 0 .087-.055l9.917-7.583a2.334 2.334 0 0 0 .005-3.703Zm-.714 2.776-9.845 7.53a.61.61 0 0 0-.076.048 1.154 1.154 0 0 1-.704.245 1.272 1.272 0 0 1-1.167-1.273V52.1a.583.583 0 0 0-.96-.446l-5.203 4.398-1.413-1.853 6.304-5.25a.584.584 0 0 0 0-.896l-6.311-5.256 1.412-1.855 5.211 4.406a.583.583 0 0 0 .96-.446V33.44a1.272 1.272 0 0 1 1.166-1.273c.256.001.503.087.704.245a.58.58 0 0 0 .076.048l9.846 7.53a1.167 1.167 0 0 1 .003 1.852l-8.055 6.196a.583.583 0 0 0 0 .924l8.055 6.197a1.167 1.167 0 0 1-.003 1.851Z" fill="#FF4948"/><path d="M49.083 45.574a.583.583 0 0 0 .584-.583v-6.936l3.749 2.867-2.355 1.811a.583.583 0 0 0 .711.925l2.958-2.275a.583.583 0 0 0-.001-.926l-5.291-4.046a.584.584 0 0 0-.938.463v8.117c0 .322.261.583.583.583ZM54.73 55.617l-2.958-2.275a.583.583 0 0 0-.711.925l2.355 1.811-3.75 2.867v-6.936a.583.583 0 1 0-1.166 0v8.116a.583.583 0 0 0 .938.464l5.29-4.046a.583.583 0 0 0 .002-.926Z" fill="#FF4948"/></svg>