<svg width="98" height="98" fill="none" xmlns="http://www.w3.org/2000/svg"><path opacity=".5" d="M97 49c0 26.51-21.49 48-48 48S1 75.51 1 49 22.49 1 49 1s48 21.49 48 48ZM5.702 49c0 23.913 19.385 43.298 43.298 43.298S92.298 72.913 92.298 49 72.913 5.702 49 5.702 5.702 25.087 5.702 49Z" fill="#F68080"/><path d="M94.796 49c1.77 0 3.215 1.437 3.1 3.203a49 49 0 0 1-97.791 0C-.011 50.435 1.435 49 3.205 49s3.191 1.437 3.324 3.202a42.592 42.592 0 0 0 84.942 0C91.604 50.437 93.026 49 94.796 49Z" fill="#FF4948"/><circle cx="48.5" cy="48.5" r="34.5" stroke="#FDD8D8" stroke-width="2" stroke-linecap="round"/><g clip-path="url(#a)" fill="#FF4948"><path d="M38.388 40.552a.645.645 0 0 0-.912 0 7.934 7.934 0 0 0-2.341 5.647c0 2.133.831 4.138 2.341 5.648a.643.643 0 0 0 .912 0 .645.645 0 0 0 0-.912 6.653 6.653 0 0 1-1.964-4.736c0-1.788.697-3.47 1.964-4.735a.644.644 0 0 0 0-.912ZM56.307 43.74a.645.645 0 0 0-.644.645v.99h-1.454V38.51c0-3.145-2.562-5.704-5.71-5.704a5.713 5.713 0 0 0-5.71 5.704v6.866h-1.453v-.991a.644.644 0 1 0-1.29 0v3.802c0 3.786 2.506 6.998 5.946 8.067v3.479h-2.23c-1.231 0-2.233 1-2.233 2.23v1.353a.88.88 0 0 0 .88.878h3.195a.644.644 0 1 0 0-1.289h-2.786v-.941c0-.52.424-.942.945-.942h9.473c.52 0 .943.422.943.942v.941h-2.786a.645.645 0 1 0 0 1.29h3.197a.88.88 0 0 0 .878-.879v-1.352c0-1.23-1.001-2.231-2.232-2.231h-2.231v-3.479c3.441-1.07 5.947-4.281 5.947-8.067v-3.802a.645.645 0 0 0-.645-.645Zm-12.229-5.23a4.423 4.423 0 0 1 4.42-4.415 4.424 4.424 0 0 1 4.422 4.415v2.13h-8.842v-2.13Zm0 3.42h8.842v1.68h-8.842v-1.68Zm0 2.97h8.842v3.287a4.424 4.424 0 0 1-4.422 4.416 4.423 4.423 0 0 1-4.42-4.416V44.9Zm5.638 14.833H47.28v-3.188a8.485 8.485 0 0 0 2.435 0v3.188Zm5.947-11.546c0 3.947-3.214 7.157-7.165 7.157-3.949 0-7.162-3.21-7.162-7.157v-1.522h1.453v1.522a5.713 5.713 0 0 0 5.71 5.705c3.148 0 5.71-2.56 5.71-5.705v-1.522h1.454v1.522ZM61.739 38.337a.645.645 0 1 0-.911.912 9.762 9.762 0 0 1 2.883 6.95 9.762 9.762 0 0 1-2.883 6.951.645.645 0 0 0 .91.912A11.043 11.043 0 0 0 65 46.2c0-2.97-1.158-5.762-3.261-7.863Z"/><path d="M59.522 40.552a.645.645 0 0 0-.911.912 6.651 6.651 0 0 1 1.965 4.735c0 1.788-.698 3.47-1.965 4.736a.645.645 0 0 0 .91.912 7.932 7.932 0 0 0 2.344-5.648 7.932 7.932 0 0 0-2.343-5.647ZM33.29 46.2a9.765 9.765 0 0 1 2.881-6.951.644.644 0 1 0-.911-.912A11.044 11.044 0 0 0 32 46.2c0 2.969 1.158 5.761 3.26 7.862a.643.643 0 0 0 .911 0 .645.645 0 0 0 0-.911 9.764 9.764 0 0 1-2.882-6.951ZM48.498 62.905a.645.645 0 0 0 0 1.29h.004a.643.643 0 0 0 .642-.645.646.646 0 0 0-.646-.645Z"/></g><defs><clipPath id="a"><path fill="#fff" transform="translate(32 32)" d="M0 0h33v33H0z"/></clipPath></defs></svg>